<?xml version="1.0" encoding="utf-8"?>
<!-- Generator: Adobe Illustrator 19.1.1, SVG Export Plug-In . SVG Version: 6.00 Build 0)  -->
<svg version="1.1" id="Layer_1" xmlns="http://www.w3.org/2000/svg" xmlns:xlink="http://www.w3.org/1999/xlink" x="0px" y="0px"
	 viewBox="0 0 160.5 136.6" style="enable-background:new 0 0 160.5 136.6;" xml:space="preserve">
<style type="text/css">
	.st0{fill:#FFFFFF;}
	.st1{fill:#4A5C68;}
	.st2{fill:none;}
	.st3{font-family:'Arial-BoldMT';}
	.st4{font-size:69px;}
	.st5{fill:#FFFFFF;stroke:#4A5C68;stroke-width:4;stroke-miterlimit:10;}
</style>
<g>
	<path class="st0" d="M148.5,136.6H12c-6.6,0-12-5.4-12-12v-91c0-6.6,5.4-12,12-12h136.5c6.6,0,12,5.4,12,12v91
		C160.5,131.2,155.1,136.6,148.5,136.6z"/>
	<path class="st1" d="M122.4,127.9H38.1c-6.6,0-12-5.4-12-12V63.6c0-6.6,5.4-12,12-12h84.3c6.6,0,12,5.4,12,12v52.3
		C134.4,122.5,129,127.9,122.4,127.9z"/>
	<rect x="29.7" y="68.2" class="st2" width="101" height="57.3"/>
	<text transform="matrix(1 0 0 1 41.8718 117.5764)" class="st0 st3 st4">31</text>
	<path class="st5" d="M26.1,42.2L26.1,42.2c-4.5,0-8.2-3.7-8.2-8.2V12c0-4.5,3.7-8.2,8.2-8.2h0c4.5,0,8.2,3.7,8.2,8.2v22
		C34.3,38.5,30.6,42.2,26.1,42.2z"/>
	<path class="st5" d="M134.4,42.2L134.4,42.2c-4.5,0-8.2-3.7-8.2-8.2V12c0-4.5,3.7-8.2,8.2-8.2h0c4.5,0,8.2,3.7,8.2,8.2v22
		C142.6,38.5,138.9,42.2,134.4,42.2z"/>
</g>
</svg>
