<?xml version="1.0" encoding="utf-8"?>
<!-- Generator: Adobe Illustrator 19.2.1, SVG Export Plug-In . SVG Version: 6.00 Build 0)  -->
<svg version="1.1" id="Layer_1" xmlns="http://www.w3.org/2000/svg" xmlns:xlink="http://www.w3.org/1999/xlink" x="0px" y="0px"
	 viewBox="0 0 139.8 142.5" style="enable-background:new 0 0 139.8 142.5;" xml:space="preserve">
<style type="text/css">
	.st0{fill:#FFFFFF;}
	.st1{fill:#66757E;stroke:#68777E;stroke-miterlimit:10;}
</style>
<path class="st0" d="M0,23.9c0,0,19,54.7,43,77.5c24.1,22.9,66.9,41.1,66.9,41.1l30-15.2l-29.8-28.4L95,109.4c0,0-0.7,1.6-21.6-19.4
	C44.9,61.6,33.7,40.3,33.7,40.3l15.9-12.7L25.5,0L0,23.9z"/>
<path class="st1" d="M0,24c0,0,19,54.7,43.1,77.5c24.1,22.9,66.9,41.1,66.9,41.1l29.9-15.2L110.1,99L95,109.4c0,0-0.7,1.6-21.7-19.5
	C45,61.6,33.7,40.4,33.7,40.4l15.8-12.8L25.5,0L0,24z"/>
</svg>
