<?xml version="1.0" encoding="utf-8"?>
<!-- Generator: Adobe Illustrator 19.1.1, SVG Export Plug-In . SVG Version: 6.00 Build 0)  -->
<svg version="1.1" id="Layer_1" xmlns="http://www.w3.org/2000/svg" xmlns:xlink="http://www.w3.org/1999/xlink" x="0px" y="0px"
	 viewBox="-217 352.3 160.5 136.6" style="enable-background:new -217 352.3 160.5 136.6;" xml:space="preserve">
<style type="text/css">
	.st0{fill:#FFFFFF;}
	.st1{fill:#4A5C68;}
	.st2{fill:none;}
	.st3{enable-background:new    ;}
	.st4{fill:#FFFFFF;stroke:#4A5C68;stroke-width:4;stroke-miterlimit:10;}
</style>
<g>
	<path class="st0" d="M-68.5,488.9H-205c-6.6,0-12-5.4-12-12v-91c0-6.6,5.4-12,12-12h136.5c6.6,0,12,5.4,12,12v91
		C-56.5,483.5-61.9,488.9-68.5,488.9z"/>
	<path class="st1" d="M-94.6,480.2h-84.3c-6.6,0-12-5.4-12-12v-52.3c0-6.6,5.4-12,12-12h84.3c6.6,0,12,5.4,12,12v52.3
		C-82.6,474.8-88,480.2-94.6,480.2z"/>
	<rect x="-187.3" y="420.5" class="st2" width="101" height="57.3"/>
	<g class="st3">
		<path class="st0" d="M-172.5,456.8l9.2-1.1c0.3,2.3,1.1,4.1,2.4,5.4c1.3,1.2,2.8,1.9,4.6,1.9c2,0,3.6-0.7,4.9-2.2
			c1.3-1.5,2-3.5,2-6c0-2.4-0.6-4.3-1.9-5.7s-2.8-2.1-4.7-2.1c-1.2,0-2.7,0.2-4.3,0.7l1-7.7c2.6,0.1,4.5-0.5,5.9-1.7
			c1.3-1.2,2-2.7,2-4.7c0-1.7-0.5-3-1.5-4c-1-1-2.3-1.5-3.9-1.5c-1.6,0-3,0.6-4.1,1.7c-1.1,1.1-1.8,2.8-2.1,4.9l-8.7-1.5
			c0.6-3,1.5-5.4,2.7-7.2c1.2-1.8,2.9-3.2,5.1-4.2c2.2-1,4.6-1.5,7.4-1.5c4.6,0,8.4,1.5,11.2,4.4c2.3,2.4,3.5,5.2,3.5,8.2
			c0,4.3-2.4,7.8-7.1,10.4c2.8,0.6,5.1,2,6.8,4.1c1.7,2.1,2.5,4.7,2.5,7.6c0,4.3-1.6,8-4.8,11.1c-3.2,3.1-7.1,4.6-11.8,4.6
			c-4.5,0-8.2-1.3-11.1-3.9C-170.4,464.3-172.1,460.9-172.5,456.8z"/>
		<path class="st0" d="M-109.6,469.9h-9.5v-35.7c-3.5,3.2-7.5,5.6-12.2,7.2v-8.6c2.5-0.8,5.2-2.3,8.1-4.6c2.9-2.3,4.9-4.9,6-7.9h7.7
			V469.9z"/>
	</g>
	<path class="st4" d="M-190.9,394.5L-190.9,394.5c-4.5,0-8.2-3.7-8.2-8.2v-22c0-4.5,3.7-8.2,8.2-8.2l0,0c4.5,0,8.2,3.7,8.2,8.2v22
		C-182.7,390.8-186.4,394.5-190.9,394.5z"/>
	<path class="st4" d="M-82.6,394.5L-82.6,394.5c-4.5,0-8.2-3.7-8.2-8.2v-22c0-4.5,3.7-8.2,8.2-8.2l0,0c4.5,0,8.2,3.7,8.2,8.2v22
		C-74.4,390.8-78.1,394.5-82.6,394.5z"/>
</g>
</svg>
