<?xml version="1.0" encoding="utf-8"?>

<svg version="1.1" id="Layer_1" xmlns="http://www.w3.org/2000/svg" xmlns:xlink="http://www.w3.org/1999/xlink" 
	 viewBox="0 0 801.2 801.2" xml:space="preserve">
<style type="text/css">
	.st0{fill:#FFCF00;}
	.st1{fill:#FFFFFF;}
</style><g transform="translate(0,341.900)">
<path class="st0" d="M322.4,0c-1.4,5.1-3.2,10.1-4.9,15.2c-9.4,28.3-18.7,56.6-28.1,84.8c-1.8,5.3-3.5,10.6-5.3,16
	c-0.3,0.9-0.7,1.4-1.7,1.4c-6.4,0-12.9,0-19.3,0c-1.7,0-1-1-0.8-1.8c4.1-12.2,8.1-24.4,12.2-36.7c8.7-26.1,17.3-52.2,25.9-78.3
	c0.1-0.2,0.1-0.4,0.1-0.6C307.8,0,315.1,0,322.4,0z"/>
<path class="st1" d="M799.3,0c-2.1,6.3-4.2,12.5-6.3,18.8c-9.7,29.1-19.3,58.2-28.9,87.3c-1.1,3.3-2.3,6.7-3.3,10
	c-0.3,0.9-0.7,1.4-1.7,1.3c-1.9-0.1-3.9-0.1-5.9,0c-1.3,0.1-1.3-0.3-1-1.4c4.6-13.8,9.2-27.6,13.8-41.5
	c8.1-24.4,16.1-48.8,24.2-73.2c0.1-0.4,0.4-0.9,0.3-1.4C793.4,0,796.3,0,799.3,0z"/>
<path class="st1" d="M181.2,74.7c2.2-4,3-8,3.2-12.1c0.1-1.1,0.1-2.2,0-3.3c-0.1-2-1.1-3-3.2-3.2c-0.7-0.1-1.4-0.1-2.1-0.1
	c-2.3,0-2.7-0.6-2.2-2.9c0.2-0.8,0.7-0.6,1.2-0.6c2,0,4,0,6,0c7.3,0,14.7,0.1,22,0c1.7,0,1.5,0.8,1.6,1.9c0.1,1.3-0.2,1.9-1.6,1.7
	c-0.6-0.1-1.3,0-1.9,0c-2.9,0-4,0.9-4.4,3.8c-0.9,6.1-2.5,11.9-5.7,17.3c-1.2,1.9-2.5,3.8-4.1,5.4c-0.6,0.6-0.6,0.9,0,1.5
	c3.3,3.4,6.5,6.9,10.2,9.9c2.3,1.9,5,2.9,8,2.8c4.3-0.1,8.5-0.1,12.8-0.2c3.7,0,5-1.2,5.4-4.9c0.2-1.6,0.3-3.3,0.3-4.9
	c0-19.3,0-38.5,0-57.8c0-2.1-0.1-4.2-0.5-6.3c-0.6-3-1.5-3.8-4.5-4.1c-0.6-0.1-1.2-0.1-1.7,0c-1.4,0.2-1.9-0.2-1.9-1.7
	c0-1.6,0.4-1.9,1.9-1.9c12,0.1,24,0.1,35.9,0c1.7,0,1.5,0.8,1.6,1.9c0.1,1.2-0.1,1.8-1.5,1.7c-5.4-0.1-6.7,1.2-6.8,6.5
	c-0.5,20-0.1,40.1-0.2,60.1c0,2.4,0,4.8,0.5,7.2c0.6,2.9,1.6,3.9,4.5,4.1c0.6,0,1.2,0.1,1.7,0c1.5-0.2,1.8,0.4,1.8,1.8
	c0,1.5-0.4,1.9-1.9,1.9c-22-0.1-44,0-66,0c-5.5,0-10.2-1.8-14.3-5.3c-0.5-0.4-0.8-1-1.6-0.4c-5.8,4.2-12.4,6.2-19.3,7.2
	c-8.3,1.1-16.5,0.5-24.4-2.7c-6.4-2.6-11.4-6.8-13.5-13.7c-2.5-8.1,0.3-16.8,7.1-21.8c0.5-0.4,1-0.5,1.6-0.4c3.4,0,6.9,0,10.3,0
	c1.2,0,1.3,0.2,0.8,1.3c-3.5,8.8-2.5,17.3,1.9,25.4c3.1,5.7,8.2,8.2,14.7,8.2c6.4,0,11.9-2.3,16.6-6.6c0.8-0.7,0.7-1.1,0-1.8
	c-11.9-13-23.9-25.9-35.6-39c-3.3-3.7-6-7.6-7-12.5c-1.8-9,2.2-17.2,10.9-21.1c10.6-4.8,21.4-5.1,32.2-0.7c4.3,1.8,7.5,4.9,8.6,9.6
	c0.9,3.7,0.3,7.2-1.7,10.5c-0.3,0.5-0.7,0.9-1.4,0.9c-3.3,0-6.6,0-10,0.1c-1.1,0-1.2-0.3-0.8-1.3c1.8-4.9,1.8-9.6-1.4-14
	c-2.9-3.9-6.8-5.2-11.5-4.2c-4.1,0.8-7.1,3-8.4,7.2c-0.9,2.9-0.4,5.7,1,8.4c1.7,3.5,4.2,6.5,6.6,9.4c5.8,6.8,12.3,13.1,18.4,19.6
	c3.5,3.8,7.1,7.5,10.6,11.3C180.6,73.8,180.8,74.2,181.2,74.7z"/>
<path class="st1" d="M79.7,31c-2,5.4-4,10.7-6.1,16.1c-6.1,16.1-12.2,32.3-18.2,48.4c-0.5,1.3-1.1,1.8-2.5,1.7
	c-1.7-0.1-3.4-0.1-5.1,0c-1.1,0.1-1.6-0.4-2-1.3c-4.1-11-8.4-21.9-12.7-32.8c-4-10.1-7.9-20.2-11.9-30.2c-0.1-0.3-0.3-0.6-0.6-0.9
	c0,0.5,0,1,0,1.5c0,16,0,32.1,0,48.1c0,3,0.1,6,1,8.9c1.2,4,3.5,5.8,7.7,5.9c1,0,1.4,0.3,1.3,1.3c0,2.2,0,2.2-2.3,2.2
	c-6.8,0-13.5,0-20.3,0c-0.5,0-1.4,0.2-1.1-0.8c0.2-1-0.8-2.6,0.7-2.8c5.1-0.7,6.5-4.3,7.2-8.5c0.3-1.8,0.4-3.7,0.4-5.5
	c0-18.6,0-37.2,0-55.7c0-1.6-0.1-3.3-0.5-4.9c-0.6-2.3-1.5-3.1-4-3.4c-0.6-0.1-1.2-0.1-1.7-0.1c-2.2,0-2.7-0.7-2.2-2.9
	C7,14.6,7.5,14.8,8,14.8c2.3,0,4.6,0,7,0c7,0,14,0.1,21.1,0c1.4,0,1.9,0.6,2.3,1.7C45.2,33.9,52.1,51.3,59,68.7
	c0.2,0.5,0.4,1,0.8,1.7c3.1-8.2,6.2-16.1,9.2-24.1c3.9-10.1,7.7-20.1,11.5-30.2c0.4-1.1,0.9-1.4,2.1-1.4c9,0,17.9,0.1,26.9,0
	c1.8,0,1.4,1,1.4,2c0.1,1.1,0,1.7-1.5,1.6c-5.4-0.1-6.7,1.2-6.8,6.5c-0.5,19.2-0.1,38.4-0.2,57.6c0,3.2,0,6.4,0.5,9.6
	c0.5,3.1,1.4,3.9,4.5,4.2c0.4,0,0.8,0.1,1.3,0.1c2.3,0.1,2.2,0.1,2.3,2.4c0,1.3-0.7,1.1-1.5,1.1c-9,0-18,0-27.1,0
	c-3.2,0-6.3,0-9.5,0c-1.1,0-1.5-0.3-1.3-1.3c0.2-0.8-0.9-2.4,1.3-2.3c1,0.1,2-0.1,3-0.2c2.1-0.2,3.1-1.1,3.6-3.2c0.5-2,0.6-4,0.6-6
	c0-18.5,0-37,0-55.6c0-0.2,0-0.4,0-0.6C80,31,79.9,31,79.7,31z"/>
<path class="st1" d="M383,25.1c-5.1-7.2-12.5-10.1-21-10.2c-10.2-0.1-20.5,0-30.7-0.1c-1.4,0-1.6,0.4-1.6,1.7c0,13.6,0,27.2,0,40.8
	h0.1c0,13.5,0,27,0,40.5c0,2.5-0.3,2.1,2.2,2.2c1.7,0,3.5-0.1,5.2,0c1.3,0.1,1.7-0.3,1.7-1.6c-0.1-10.6,0-21.2-0.1-31.8
	c0-1.3,0.3-1.7,1.6-1.7c6.6,0.1,13.2,0,19.8,0c2,0,4,0,6-0.3C384.8,62,393.9,40.5,383,25.1z M376,49c-2.7,5.1-7.5,7.3-12.9,7.5
	c-7.7,0.4-15.5,0.1-23.3,0.2c-1.1,0-0.9-0.7-0.9-1.3V39.8c0-5.1,0-10.2,0-15.3c0-1.1,0.3-1.4,1.4-1.4c7.1,0.1,14.1-0.1,21.2,0.1
	c6.1,0.2,11.6,2,14.6,7.7C379.2,36.8,379.1,43.1,376,49z"/>
<path class="st1" d="M435.3,71c0-4.6,0.3-9.3-0.2-13.9c-0.7-7.1-4.2-12.1-10.9-14.7c-6.1-2.3-12.4-2.2-18.7-1.5
	c-5.5,0.6-10,3.1-13.5,7.4c-0.6,0.7-0.7,1.2,0.1,1.8c1.4,1.2,2.8,2.5,4.2,3.9c0.7,0.7,1.1,0.6,1.7-0.2c2.2-2.9,5-4.7,8.7-5.3
	s7.5-0.7,11.1,0.2c4.8,1,7.9,3.9,8.7,9c0.4,2.5,0.1,5.1,0.2,7.6c0.1,1-0.3,1.3-1.2,1.2c-3.9,0-7.8,0-11.7,0c-3.4,0-6.8,0-10.2,0.5
	c-8.4,1.4-13.6,6.7-14.4,14.8c-0.8,8.9,3.6,16.2,12.6,18.3c2.9,0.7,5.9,0.7,9,0.7c6,0.1,11.4-1.4,15.9-6.2c0,1.6,0.1,2.8,0,4
	c-0.1,1.1,0.2,1.6,1.5,1.5c1.8-0.1,3.6-0.1,5.4,0c1.5,0.1,2-0.3,2-1.9C435.3,89.1,435.4,80,435.3,71z M426.3,83.5
	c-0.7,4.8-3.6,7.7-8,8.9c-4.4,1.2-9,1.2-13.4,0.2c-5.3-1.2-7.6-4.3-7.5-9.6c0.1-5.2,2.8-8.5,7.9-9.6c0.6-0.1,1.1-0.2,1.7-0.3
	c3.4-0.5,6.8-0.1,9.6-0.2c3.3,0,6,0,8.7,0c1,0,1.4,0.2,1.4,1.3C426.5,77.3,426.8,80.4,426.3,83.5z"/>
<path class="st1" d="M647.9,60c-1.1-5.3-3.2-10.2-7.3-13.9c-6.7-6-14.6-7-22.9-4.7c-8,2.1-12.5,8-14.9,15.6
	c-2.2,6.7-2.3,13.7-1.5,20.6c0.4,3.3,1.2,6.4,2.5,9.4c3.5,8,9.7,12.3,18.3,13.3c9.5,1.1,17.9-0.9,24.8-7.9c0.8-0.8,0.8-1.2-0.1-1.9
	c-1.2-1-2.5-2-3.5-3.2c-1.1-1.2-1.7-0.9-2.7,0.1c-3.1,3.1-6.9,5-11.3,5.4c-7.9,0.7-14.6-1.8-17.8-9.3c-1.3-3-1.8-6.1-1.9-9.4
	c-0.1-1.2,0.4-1.5,1.5-1.5c6,0,12,0,18,0c6.1,0,12.2,0,18.4,0c0.8,0,1.4,0.1,1.4-1.1C648.8,67.9,648.7,63.9,647.9,60z M638.7,66.3
	c-4.7,0-9.4,0-14.1,0c-4.6,0-9.2,0-13.8,0c-1.1,0-1.4-0.2-1.4-1.4c0.2-4.5,1.1-8.8,4.2-12.3c7.8-8.6,21.7-5.4,25.3,5.8
	c0.7,2.1,0.9,4.3,1,6.5C640.1,66.1,639.7,66.3,638.7,66.3z"/>
<path class="st1" d="M549.1,47.4c2.9-3,5.9-5.1,9.6-6c8.2-2,15.8-1.3,22.1,5.1c4,4,5.5,9.2,5.5,14.7c0.1,12.5,0,25,0.1,37.5
	c0,1.1-0.3,1.4-1.4,1.4c-1.9-0.1-3.8-0.1-5.7,0c-1.2,0.1-1.5-0.3-1.5-1.5c0.1-6.3,0.1-12.7,0-19c0-6.1,0.3-12.1-0.2-18.2
	c-0.7-9.5-7.2-14-15.8-13.1c-8.2,0.8-12.7,6.3-12.7,15.1c0,11.7,0,23.3,0,35c0,1.4-0.3,1.8-1.7,1.7c-1.8-0.1-3.7-0.1-5.5,0
	c-1.1,0.1-1.4-0.3-1.4-1.4c0.1-3.8,0-7.6,0-11.4c0-14.8,0-29.6,0-44.5c0-1.3,0.3-1.8,1.6-1.7c1.9,0.1,3.8,0.1,5.7,0
	c1.2-0.1,1.4,0.4,1.4,1.4C549.1,44,549.1,45.5,549.1,47.4z"/>
<path class="st1" d="M728.3,40.5c6.5,0.1,12.8,1.2,18.4,4.8c2.3,1.5,2.3,1.5,0.4,3.3c-1.2,1.2-2.3,3-3.8,3.5
	c-1.4,0.5-2.8-1.4-4.3-2.1c-5.9-2.3-11.9-3.1-18.1-1.2c-4.9,1.6-7.2,6.1-6,11c0.8,3,2.9,4.6,5.7,5.4c3.3,0.9,6.7,0.9,10,1.3
	c3.8,0.4,7.5,0.6,11.2,1.9c6,2.1,9.4,6.7,9.6,13.1c0.2,9.1-4.2,15.3-13.6,17.9c-8.8,2.4-17.6,2-26.1-1.6c-2.7-1.1-5.1-2.9-7.4-4.9
	c-0.6-0.5-0.6-0.8-0.1-1.3c1.5-1.4,2.9-2.9,4.3-4.4c0.6-0.7,0.9-0.6,1.6,0c8.1,6.9,17.2,7.5,26.8,4.3c4.6-1.5,6.7-5.9,5.8-10.7
	c-0.6-3.1-2.7-4.9-5.6-5.8c-3.4-1-6.9-0.9-10.3-1.3c-3.2-0.3-6.5-0.5-9.7-1.5c-5.8-1.7-9.7-5.3-10.7-11.4c-1-6.6,0.7-12.2,6.3-16.3
	C717.5,41.3,722.8,40.4,728.3,40.5z"/>
<path class="st1" d="M512.6,67.2c0,5.6,0,11.3,0,16.9c0,5.7,2.7,8.3,8.3,8.3c1.3,0,3-0.6,3.8,0.2c0.8,0.8,0.2,2.5,0.3,3.8
	c0,3.5,0,3.4-3.4,3.5c-2.7,0-5.4,0.1-8-0.8c-5.5-1.8-8.4-5.9-9.4-11.4c-0.3-1.5-0.3-2.9-0.3-4.4c0-11.2,0-22.5,0-33.7
	c0-1.2-0.2-1.7-1.5-1.6c-1.6,0.1-3.2,0-4.7,0c-0.8,0-1.1-0.1-1.1-1c0.1-1.6,0-3.2,0-4.7c0-0.7,0.2-0.9,0.9-0.9c1.7,0,3.5,0,5.2,0
	c1,0,1.2-0.2,1.2-1.2c0-5.2,0-10.4,0-15.7c0-1.1,0.2-1.6,1.4-1.5c2,0.1,4,0.1,6,0c1.1-0.1,1.3,0.3,1.3,1.3c0,5.2,0,10.4,0,15.7
	c0,1.1,0.3,1.4,1.4,1.4c3.3-0.1,6.5,0,9.8,0c0.9,0,1.3,0.2,1.3,1.2c-0.1,1.4-0.1,2.9,0,4.3c0.1,1-0.3,1.2-1.3,1.2
	c-3.3-0.1-6.5,0-9.8,0c-1.1,0-1.4,0.3-1.4,1.4C512.6,55.4,512.6,61.3,512.6,67.2z"/>
<path class="st1" d="M461.5,47.9c7-8.5,18.2-8.6,24.3-6.1c2,0.8,3.8,2.1,5.4,3.5c0.5,0.5,0.6,0.8,0,1.4c-1.7,1.7-3.4,3.4-5.1,5.2
	c-0.6,0.6-0.9,0.4-1.4,0c-4.3-4.2-9.4-4.6-14.6-2.6s-7.5,6.3-8.4,11.6c-0.2,1.3-0.2,2.7-0.2,4.1c0,11.2,0,22.4,0,33.6
	c0,1.2-0.3,1.7-1.6,1.6c-1.8-0.1-3.7-0.1-5.5,0c-1.2,0.1-1.6-0.3-1.6-1.5c0.1-7.5,0-15.1,0-22.6c0-11.1,0-22.2,0-33.2
	c0-1.1,0.2-1.6,1.4-1.5c2,0.1,4,0.1,6,0c1,0,1.2,0.3,1.2,1.3C461.4,44.1,461.5,45.8,461.5,47.9z"/>
<path class="st1" d="M672.3,48.1c3-3.9,6.7-6.1,11.1-7c6.6-1.3,12.9-0.8,18.2,3.9c0.9,0.8,1,1.2,0.1,2c-1.6,1.5-3.1,3.1-4.6,4.8
	c-0.5,0.6-0.9,0.7-1.5,0.1c-4.2-4.1-9.1-4.6-14.3-2.7c-5.3,1.9-7.7,6.2-8.6,11.5c-0.2,1.4-0.3,2.8-0.3,4.3c0,11.2,0,22.4,0,33.5
	c0,1.2-0.2,1.7-1.5,1.6c-1.8-0.1-3.7-0.1-5.5,0c-1.2,0.1-1.7-0.2-1.6-1.5c0.1-2.8,0-5.6,0-8.4c0-15.8,0-31.5,0-47.3
	c0-1.4,0.4-1.8,1.8-1.7c1.9,0.1,3.9,0.1,5.9,0c0.8,0,1.1,0.2,1.1,1.1C672.3,44,672.3,45.8,672.3,48.1z"/>
</g></svg>
