<?xml version="1.0" encoding="utf-8"?>
<!-- Generator: Adobe Illustrator 19.2.1, SVG Export Plug-In . SVG Version: 6.00 Build 0)  -->
<svg version="1.1" id="Layer_1" xmlns="http://www.w3.org/2000/svg" xmlns:xlink="http://www.w3.org/1999/xlink" x="0px" y="0px"
	 viewBox="0 0 177.9 110.8" style="enable-background:new 0 0 177.9 110.8;" xml:space="preserve">
<style type="text/css">
	.st0{fill:#66757E;stroke:#4A5C68;stroke-miterlimit:10;}
	.st1{fill:#66757E;stroke:#4A5C68;stroke-width:6;stroke-miterlimit:10;}
</style>
<g>
	<path class="st0" d="M177.9,49.6c0,24.7-38.5,44.7-86,44.7c-22.3,0-42.7-4.4-58-11.7c-1.9,0.9-8,4.2-10.2,9.6
		c-2.6,6.4-4.8,18.6-4.8,18.6s-4.6-9.3-2.4-17.3c2.2-8,4-11.8,6.2-14.2c1-1,1.5-1.6,1.8-1.9c-1.1-0.7-2.2-1.5-3.2-2.3
		c-9.7-7.2-15.4-16-15.4-25.5c0-24.7,38.5-44.7,86-44.7S177.9,24.9,177.9,49.6z"/>
	<line class="st1" x1="45.9" y1="34.9" x2="108.9" y2="34.9"/>
	<line class="st1" x1="45.9" y1="49.6" x2="106.1" y2="49.6"/>
	<line class="st1" x1="45.9" y1="62.9" x2="135.9" y2="62.9"/>
</g>
</svg>
