<?xml version="1.0" encoding="utf-8"?>

<svg version="1.1" id="Layer_1" xmlns="http://www.w3.org/2000/svg" xmlns:xlink="http://www.w3.org/1999/xlink" 
	 viewBox="0 0 172.9 172.9" xml:space="preserve">
<style type="text/css">
	.st0{fill:#FFFFFF;}
</style><g transform="translate(0,3.500)">
<path class="st0" d="M27.5,134.5c10.3,12.3,24.3,21.4,40.3,25.6l3.5-13.9L27.5,134.5z M104.2,146.2l3.5,13.9
	c16-4.2,30-13.3,40.3-25.6L104.2,146.2z M9.6,75.9c-0.3,2.7-0.4,5.4-0.4,8.2c0,12,2.7,23.4,7.6,33.6l8.8-37.4L9.6,75.9z
	 M118.2,122.7l10-42.4L97,71.6l41.3-9.5l0.6-0.1l0.6,0.1l25.1,5.8c-7.5-35.6-39-62.2-76.8-62.2c-37.8,0-69.3,26.6-76.8,62.2
	l24.8-5.7l0.6-0.1l0.6,0.1l41.3,9.5l-31.2,8.8l10,42.4L36.2,96.3l-18.4,23.6c2.3,4.6,5.1,8.9,8.3,12.8l60.8-13.2l0.8-0.2h0.2
	l0.8,0.2l60.8,13.2c3.1-3.9,5.8-8.1,8.1-12.6l-18.6-23.8L118.2,122.7z M139.5,34.3c6.2,0,11.3,5.3,11.3,11.9c0,6.6-5,11.9-11.3,11.9
	s-11.3-5.3-11.3-11.9C128.2,39.6,133.2,34.3,139.5,34.3z M87.7,10.6c4.2,0,7.5,3.4,7.5,7.5c0,4.2-3.4,7.5-7.5,7.5
	c-4.2,0-7.5-3.4-7.5-7.5C80.2,14,83.5,10.6,87.7,10.6z M36.8,58.1c-6.2,0-11.3-5.3-11.3-11.9c0-6.6,5-11.9,11.3-11.9
	c6.2,0,11.3,5.3,11.3,11.9C48.1,52.8,43,58.1,36.8,58.1z M73.9,66.7l6.7-26.8l-20.9-5.6l27.7-6l0.4-0.1l0.4,0.1l27.7,6l-20.9,5.6
	l6.7,26.8L87.7,49.9L73.9,66.7z M87.7,112.5c-9.7,0-17.5-7.8-17.5-17.4c0-9.6,7.8-17.5,17.5-17.5c9.6,0,17.4,7.8,17.4,17.5
	C105.2,104.7,97.3,112.5,87.7,112.5z M165.8,75.8l-16.3,4.6l8.9,37.8c5-10.3,7.8-21.9,7.8-34.1C166.2,81.3,166.1,78.5,165.8,75.8z"
	/>
</g></svg>
