<?xml version="1.0" standalone="no"?>
<!DOCTYPE svg PUBLIC "-//W3C//DTD SVG 20010904//EN"
 "http://www.w3.org/TR/2001/REC-SVG-20010904/DTD/svg10.dtd">
<svg version="1.0" xmlns="http://www.w3.org/2000/svg"
 width="514.000000pt" height="514.000000pt" viewBox="0 0 514.000000 514.000000"
 preserveAspectRatio="xMidYMid meet">
<metadata>
Created by potrace 1.11, written by Peter Selinger 2001-2013
</metadata>
<g transform="translate(0.000000,514.000000) scale(0.100000,-0.100000)"
fill="#000000" stroke="none">
<path d="M1895 4715 c-129 -20 -152 -24 -202 -36 -27 -6 -59 -13 -72 -15 -13
-3 -79 -23 -145 -45 -597 -200 -1082 -655 -1322 -1240 -48 -117 -107 -322
-125 -429 -6 -36 -13 -76 -16 -90 -2 -14 -6 -131 -8 -260 -4 -244 2 -319 40
-504 128 -620 567 -1183 1150 -1474 406 -203 901 -276 1332 -197 123 22 133
25 223 50 46 13 86 22 88 21 1 -2 -5 -22 -14 -45 -30 -75 -49 -71 368 -70 205
0 384 3 398 5 16 3 30 15 37 32 6 15 73 214 148 442 125 380 141 422 190 495
98 148 171 292 230 449 39 105 90 290 100 366 4 25 10 65 15 90 4 25 8 52 8
60 12 217 4 188 165 675 83 253 152 465 153 470 2 6 91 273 199 595 107 322
197 595 200 608 2 12 7 31 10 42 6 19 0 20 -398 19 l-404 -1 -152 -459 -153
-459 -68 89 c-84 108 -237 264 -344 349 -75 60 -249 182 -260 182 -3 0 -29 14
-58 31 -111 66 -395 179 -509 203 -142 30 -221 45 -259 51 -85 13 -462 12
-545 0z m510 -148 c11 -3 42 -8 69 -11 221 -30 514 -136 721 -261 89 -54 240
-164 296 -216 20 -19 52 -48 70 -65 83 -75 229 -250 291 -349 16 -25 23 -47
19 -58 -6 -15 -14 -8 -45 40 -202 306 -484 551 -817 710 -145 70 -372 142
-497 159 -26 3 -49 7 -52 9 -40 24 -561 23 -600 0 -3 -2 -26 -6 -50 -10 -25
-3 -63 -11 -85 -17 -22 -5 -51 -12 -65 -14 -54 -9 -241 -80 -357 -134 -321
-153 -592 -389 -798 -696 -68 -101 -154 -268 -198 -384 -40 -105 -91 -292
-102 -375 -2 -22 -7 -49 -9 -60 -22 -111 -23 -400 0 -535 2 -14 6 -45 10 -70
9 -74 60 -259 99 -366 76 -202 185 -390 331 -572 39 -48 191 -201 249 -249
214 -181 496 -326 768 -398 51 -13 103 -26 117 -29 137 -24 149 -25 250 -33
174 -12 326 -4 501 28 104 18 322 79 362 100 10 6 21 9 23 6 10 -9 -9 -35 -29
-42 -12 -4 -24 -8 -27 -9 -10 -3 -145 -47 -175 -56 -16 -5 -41 -11 -55 -14
-14 -3 -36 -7 -50 -11 -14 -3 -47 -8 -75 -11 -27 -4 -53 -8 -57 -10 -3 -2 -48
-7 -100 -11 -416 -30 -767 43 -1127 233 -556 294 -955 861 -1045 1484 -32 228
-23 511 25 718 6 26 13 58 15 71 10 53 85 261 123 344 119 259 333 538 536
702 28 22 56 46 64 53 26 25 188 131 267 174 219 121 521 216 744 235 30 2 56
6 58 8 6 5 382 -2 407 -8z m-101 -171 c50 -4 104 -9 119 -11 15 -3 55 -10 88
-16 273 -48 606 -205 830 -392 157 -131 334 -343 424 -509 l38 -71 -44 -131
c-23 -72 -47 -134 -52 -137 -5 -4 -108 -6 -229 -6 -142 0 -222 -3 -229 -10
-18 -18 -1 -53 24 -49 36 5 65 -14 73 -47 3 -17 6 -226 6 -464 0 -418 -4 -490
-31 -494 -3 -1 -57 -2 -119 -3 -88 -2 -122 2 -151 15 -34 15 -171 138 -171
154 0 3 10 16 21 28 33 34 87 155 103 230 16 79 23 88 64 92 39 3 51 11 48 33
-4 24 -34 27 -238 24 l-178 -3 0 -24 c0 -14 3 -25 8 -26 4 0 22 -2 41 -4 42
-4 51 -18 50 -70 -1 -41 -28 -155 -36 -155 -6 0 -69 66 -368 384 -82 87 -129
176 -120 228 13 73 62 112 139 112 92 -1 147 -64 142 -164 -2 -30 -5 -62 -7
-70 -3 -12 11 -16 76 -18 l81 -3 17 36 c23 49 21 111 -6 165 -18 37 -33 50
-85 76 -199 100 -483 39 -564 -120 -44 -85 -19 -226 54 -306 13 -14 57 -63 98
-110 41 -47 84 -94 95 -106 11 -11 61 -66 111 -120 50 -54 112 -121 137 -149
26 -27 47 -53 47 -58 0 -13 -92 -67 -135 -79 -85 -23 -180 -5 -233 45 -26 25
-65 104 -77 157 -12 53 -8 142 9 191 8 24 14 45 12 46 -3 3 -109 6 -153 4 -32
-1 -98 -74 -115 -129 -72 -223 121 -400 422 -388 137 6 187 18 283 69 53 28
59 29 75 14 10 -9 40 -26 67 -38 47 -21 64 -22 307 -23 165 -1 258 -5 258 -11
1 -5 -78 -249 -175 -541 l-176 -532 -68 -31 c-121 -56 -339 -121 -456 -136
-149 -20 -197 -23 -335 -20 -85 2 -164 6 -175 8 -11 3 -42 8 -70 11 -94 13
-284 65 -390 107 -260 103 -517 283 -690 483 -33 37 -66 74 -73 82 -40 42
-170 251 -216 347 -126 263 -180 503 -180 802 0 170 10 263 44 410 183 788
861 1368 1660 1421 52 4 96 7 97 8 3 2 82 -2 177 -8z m1625 -946 c71 -141 152
-368 167 -470 3 -19 7 -42 9 -50 5 -18 12 -61 25 -155 9 -71 6 -415 -5 -470
-3 -16 -12 -68 -21 -115 -107 -592 -517 -1130 -1066 -1399 -56 -28 -103 -49
-105 -48 -1 2 9 39 24 83 26 80 27 81 82 110 253 132 515 373 674 620 150 233
255 522 284 780 10 90 10 371 0 454 -20 166 -80 378 -151 535 l-34 73 26 83
c29 95 28 95 91 -31z m-252 -436 c-6 -20 -13 -31 -15 -25 -6 17 7 61 17 61 5
0 4 -16 -2 -36z"/>
<path d="M498 3122 c-17 -3 -31 -29 -23 -42 2 -4 22 -10 43 -14 70 -11 67 9
67 -480 0 -427 -1 -442 -21 -476 -11 -20 -33 -39 -50 -45 -35 -12 -43 -21 -37
-46 5 -18 15 -19 162 -17 152 3 156 4 159 25 3 17 -3 24 -25 28 -40 9 -54 18
-77 49 -20 26 -21 44 -26 377 -3 193 -3 356 0 364 3 8 20 -25 39 -73 144 -368
263 -672 276 -699 14 -31 17 -33 69 -33 43 0 57 4 65 18 5 9 71 182 146 382
75 201 143 381 150 400 14 34 14 32 15 -55 1 -74 1 -349 0 -638 0 -64 -19 -91
-66 -92 -32 0 -55 -28 -37 -46 9 -9 338 -16 501 -10 28 1 30 36 2 51 -11 6
-20 9 -20 6 0 -3 -13 0 -30 5 -23 9 -31 19 -37 51 -6 32 -9 702 -4 879 1 47
20 70 61 73 39 3 62 28 42 48 -8 8 -65 11 -203 11 -105 -1 -192 -3 -193 -5 -2
-2 -64 -163 -139 -358 -118 -308 -137 -352 -145 -330 -96 248 -275 690 -280
691 -22 2 -371 3 -384 1z"/>
</g>
</svg>
