<?xml version="1.0" standalone="no"?>
<!DOCTYPE svg PUBLIC "-//W3C//DTD SVG 20010904//EN"
 "http://www.w3.org/TR/2001/REC-SVG-20010904/DTD/svg10.dtd">
<svg version="1.0" xmlns="http://www.w3.org/2000/svg"
 width="432.000000pt" height="432.000000pt" viewBox="0 0 432.000000 432.000000"
 preserveAspectRatio="xMidYMid meet">
<metadata>
Created by potrace 1.11, written by Peter Selinger 2001-2013
</metadata>
<g transform="translate(0.000000,432.000000) scale(0.100000,-0.100000)"
fill="#000000" stroke="none">
<path d="M363 3285 c-27 -16 -49 -40 -62 -68 -21 -43 -21 -50 -21 -1063 l0
-1020 23 -44 c26 -52 59 -78 113 -90 59 -14 3284 -13 3339 1 62 16 111 68 125
133 8 36 10 347 8 1051 -3 908 -5 1003 -20 1030 -21 39 -56 71 -91 84 -20 8
-540 11 -1700 11 l-1672 0 -42 -25z m3416 -51 c51 -36 51 -35 51 -729 l0 -645
-805 0 c-443 0 -805 1 -805 3 0 2 11 36 24 75 l25 72 -38 0 -37 0 -24 -75 -24
-75 -903 0 -903 0 0 661 0 661 34 34 34 34 1674 0 c1531 0 1676 -1 1697 -16z"/>
<path d="M3338 2499 c-149 -448 -193 -591 -183 -595 7 -3 59 -2 115 3 l101 8
190 570 c104 314 189 578 189 588 0 15 -12 17 -108 17 l-107 0 -197 -591z"/>
<path d="M1947 2937 c-77 -27 -112 -55 -138 -112 -26 -55 -24 -112 6 -171 14
-29 101 -133 215 -257 104 -114 190 -212 190 -217 0 -18 -89 -61 -137 -67 -38
-4 -61 0 -97 15 -41 19 -50 29 -77 87 -28 59 -31 73 -26 133 3 37 8 77 12 90
7 23 7 23 -66 20 -73 -3 -73 -3 -105 -45 -56 -74 -55 -174 2 -250 13 -18 54
-46 91 -65 56 -28 79 -33 157 -36 104 -5 193 13 263 53 24 13 45 19 49 14 3
-5 23 -18 44 -29 37 -19 60 -20 410 -20 l371 0 -3 21 c-2 16 -11 23 -32 25
-16 2 -34 8 -40 14 -14 14 -20 489 -9 640 l8 105 35 5 c27 4 36 10 38 28 l3
22 -201 0 -201 0 3 -22 c2 -16 11 -24 28 -26 49 -7 50 -11 50 -386 0 -200 -4
-357 -10 -366 -12 -19 -148 -27 -200 -11 -23 7 -61 34 -95 67 l-57 56 20 22
c30 32 61 99 76 165 18 76 21 81 57 81 26 0 30 3 27 23 -2 12 -9 22 -15 21 -7
-1 -79 -2 -159 -2 -133 -2 -145 -4 -142 -19 2 -10 14 -20 28 -21 44 -7 53 -21
47 -78 -3 -29 -10 -62 -16 -73 -11 -19 -19 -13 -115 87 -214 222 -266 290
-266 347 0 75 73 121 145 91 58 -24 83 -93 61 -164 -7 -21 -5 -22 58 -22 57 0
67 3 77 22 18 33 15 98 -5 136 -42 81 -225 116 -359 69z"/>
<path d="M590 2920 c0 -13 9 -22 28 -26 15 -3 32 -7 39 -9 20 -7 25 -82 21
-395 -3 -331 -5 -343 -59 -362 -18 -6 -29 -17 -29 -29 0 -18 9 -19 125 -19
115 0 125 1 125 19 0 12 -11 21 -32 27 -23 7 -38 20 -51 45 -15 32 -17 65 -15
300 l3 263 121 -310 121 -309 49 0 49 0 120 319 120 320 3 -263 c1 -144 -1
-283 -6 -309 -7 -44 -10 -48 -45 -56 -26 -7 -37 -15 -37 -28 0 -17 13 -18 200
-18 189 0 200 1 200 19 0 13 -10 21 -34 25 -19 4 -37 14 -40 22 -3 9 -6 174
-6 369 0 376 -1 370 50 377 17 2 26 10 28 26 3 22 3 22 -147 22 -133 0 -151
-2 -160 -18 -5 -9 -50 -124 -100 -255 -50 -131 -94 -245 -99 -253 -6 -11 -41
67 -114 253 l-105 268 -162 3 c-155 2 -161 2 -161 -18z"/>
</g>
</svg>
